<?xml version="1.0" standalone="no"?>
<!DOCTYPE svg PUBLIC "-//W3C//DTD SVG 20010904//EN"
 "http://www.w3.org/TR/2001/REC-SVG-20010904/DTD/svg10.dtd">
<svg version="1.0" xmlns="http://www.w3.org/2000/svg"
 width="390.000000pt" height="390.000000pt" viewBox="0 0 390.000000 390.000000"
 preserveAspectRatio="xMidYMid meet">

<g transform="translate(0.000000,390.000000) scale(0.100000,-0.100000)"
fill="#000000" stroke="none">
<path d="M2686 3489 c-115 -136 -70 -328 88 -379 59 -19 156 -8 210 24 52 30
99 87 94 113 -8 42 -167 55 -237 19 -42 -22 -51 -15 -38 31 13 52 -12 137 -56
187 l-33 39 -28 -34z"/>
<path d="M1129 3122 c-78 -41 -101 -84 -96 -182 5 -94 197 -895 227 -948 12
-21 37 -49 57 -62 36 -25 41 -25 287 -31 138 -3 257 -4 263 -1 15 5 26 56 21
103 -3 32 -12 40 -126 114 -121 79 -135 96 -100 118 13 9 39 1 118 -37 55 -27
104 -46 108 -42 3 4 9 62 12 129 l5 122 35 0 35 0 5 -62 5 -62 73 45 c78 48
93 52 111 30 10 -12 -3 -27 -71 -81 -100 -80 -112 -101 -105 -168 4 -27 8 -52
10 -54 3 -2 69 26 148 62 78 36 150 65 159 65 18 0 40 -19 40 -35 0 -5 -77
-53 -170 -105 -153 -84 -171 -97 -168 -118 l3 -24 229 2 c179 0 236 4 265 16
43 18 78 49 97 86 19 37 194 898 194 954 0 25 -6 59 -14 77 -17 43 -76 93
-123 106 -25 7 -287 11 -759 11 l-722 0 -53 -28z m941 -317 c0 -8 -6 -15 -14
-15 -17 0 -28 14 -19 24 12 12 33 6 33 -9z m-400 -81 c0 -8 -7 -14 -15 -14
-15 0 -21 21 -9 33 10 9 24 -2 24 -19z m-200 -69 c0 -8 -7 -15 -15 -15 -8 0
-15 7 -15 15 0 8 7 15 15 15 8 0 15 -7 15 -15z m460 -99 c0 -21 -21 -31 -30
-15 -5 7 -6 17 -4 21 9 14 34 9 34 -6z m488 -3 c-4 -22 -22 -20 -26 1 -2 10 3
16 13 16 10 0 15 -7 13 -17z m-191 -4 c17 -17 -10 -65 -50 -89 -39 -24 -115
-27 -123 -5 -8 21 20 62 59 85 35 22 97 26 114 9z m-539 -16 c-5 -25 -28 -28
-28 -4 0 12 6 21 16 21 9 0 14 -7 12 -17z m670 -172 c5 -31 -16 -78 -42 -96
-35 -25 -46 -19 -46 26 0 32 6 47 30 71 34 33 53 33 58 -1z m-678 -241 c40
-28 38 -43 -9 -65 -47 -21 -96 -15 -135 16 -35 27 -33 47 7 65 41 18 98 12
137 -16z"/>
<path d="M2545 1886 c-143 -64 -101 -276 54 -276 85 0 145 58 145 142 0 101
-109 175 -199 134z"/>
<path d="M1344 1864 c-158 -54 -119 -281 47 -278 79 1 139 61 139 139 0 102
-92 171 -186 139z"/>
</g>
</svg>
